<svg id="Qvantumlogo_white" xmlns="http://www.w3.org/2000/svg" width="50.646" height="49.84" viewBox="0 0 50.646 49.84">
  <path id="Path_10" data-name="Path 10" d="M50.478,41.566a7.357,7.357,0,1,1-7.354-7.489,7.332,7.332,0,0,1,7.354,7.489" transform="translate(-17.361 -16.542)" fill="#fff"/>
  <path id="Path_11" data-name="Path 11" d="M30.679,33.834A10.582,10.582,0,0,1,25.772,35.1a10.208,10.208,0,1,1,10.21-10.73,10.087,10.087,0,0,1-2.724,7.458l10.83,9.8a24.639,24.639,0,0,0,6.53-17.911A25.124,25.124,0,0,0,24.134.03a25.123,25.123,0,0,0-24.1,26.1A25.123,25.123,0,0,0,26.512,49.81a25.467,25.467,0,0,0,15.224-5.945Z" transform="translate(-0.001 0)" fill="#fff"/>
</svg>
